{
  "accessors": [
    {
      "bufferView": 2,
      "componentType": 5126,
      "count": 65534,
      "max": [
        8.996859550476074,
        9.659819602966309,
        6.624189853668213
      ],
      "min": [
        -7.841839790344238,
        -0.04928800091147423,
        -9.325220108032227
      ],
      "type": "VEC3"
    },
    {
      "bufferView": 2,
      "byteOffset": 786408,
      "componentType": 5126,
      "count": 65534,
      "max": [
        0.9999029040336609,
        0.9999875426292419,
        0.9999985694885254
      ],
      "min": [
        -0.9999984502792358,
        -0.9999914765357971,
        -0.9998923540115356
      ],
      "type": "VEC3"
    },
    {
      "bufferView": 1,
      "componentType": 5126,
      "count": 65534,
      "max": [
        0.9965839982032776,
        0.9970449805259705
      ],
      "min": [
        0.0004825590003747493,
        0.0004825590003747493
      ],
      "type": "VEC2"
    },
    {
      "bufferView": 0,
      "componentType": 5125,
      "count": 149265,
      "type": "SCALAR"
    },
    {
      "bufferView": 2,
      "byteOffset": 1572816,
      "componentType": 5126,
      "count": 46312,
      "max": [
        5.73691987991333,
        1.3970099687576294,
        4.033050060272217
      ],
      "min": [
        -4.691999912261963,
        -0.20907199382781982,
        -6.296919822692871
      ],
      "type": "VEC3"
    },
    {
      "bufferView": 2,
      "byteOffset": 2128560,
      "componentType": 5126,
      "count": 46312,
      "max": [
        0.9999995827674866,
        1.0,
        0.9999989867210388
      ],
      "min": [
        -0.9999984502792358,
        -1.0,
        -0.9999997615814209
      ],
      "type": "VEC3"
    },
    {
      "bufferView": 1,
      "byteOffset": 524272,
      "componentType": 5126,
      "count": 46312,
      "max": [
        0.9964579939842224,
        0.997497022151947
      ],
      "min": [
        0.0004825590003747493,
        0.0004825590003747493
      ],
      "type": "VEC2"
    },
    {
      "bufferView": 0,
      "byteOffset": 597060,
      "componentType": 5125,
      "count": 87126,
      "type": "SCALAR"
    },
    {
      "bufferView": 2,
      "byteOffset": 2684304,
      "componentType": 5126,
      "count": 16915,
      "max": [
        5.926000118255615,
        7.697080135345459,
        4.020410060882568
      ],
      "min": [
        -4.6892499923706055,
        -0.03859280049800873,
        -9.945090293884277
      ],
      "type": "VEC3"
    },
    {
      "bufferView": 2,
      "byteOffset": 2887284,
      "componentType": 5126,
      "count": 16915,
      "max": [
        1.0,
        1.0,
        1.0
      ],
      "min": [
        -1.0,
        -1.0,
        -1.0
      ],
      "type": "VEC3"
    },
    {
      "bufferView": 1,
      "byteOffset": 894768,
      "componentType": 5126,
      "count": 16915,
      "max": [
        0.9957969784736633,
        0.992343008518219
      ],
      "min": [
        0.0,
        0.0
      ],
      "type": "VEC2"
    },
    {
      "bufferView": 0,
      "byteOffset": 945564,
      "componentType": 5125,
      "count": 31035,
      "type": "SCALAR"
    },
    {
      "bufferView": 2,
      "byteOffset": 3090264,
      "componentType": 5126,
      "count": 30600,
      "max": [
        8.046941757202148,
        9.163017272949219,
        10.28748893737793
      ],
      "min": [
        -8.466397285461426,
        -7.6143999099731445,
        3.8518130779266357
      ],
      "type": "VEC3"
    },
    {
      "bufferView": 2,
      "byteOffset": 3457464,
      "componentType": 5126,
      "count": 30600,
      "max": [
        0.9991180896759033,
        0.9988022446632385,
        0.999984085559845
      ],
      "min": [
        -0.9987826347351074,
        -0.999984860420227,
        -0.9999810457229614
      ],
      "type": "VEC3"
    },
    {
      "bufferView": 1,
      "byteOffset": 1030088,
      "componentType": 5126,
      "count": 30600,
      "max": [
        0.9998980164527893,
        1.0
      ],
      "min": [
        0.0,
        0.0
      ],
      "type": "VEC2"
    },
    {
      "bufferView": 0,
      "byteOffset": 1069704,
      "componentType": 5125,
      "count": 30600,
      "type": "SCALAR"
    },
    {
      "bufferView": 2,
      "byteOffset": 3824664,
      "componentType": 5126,
      "count": 68,
      "max": [
        9.543421745300293,
        11.573640823364258,
        7.702948093414307
      ],
      "min": [
        -4.6887736320495605,
        -4.0198774337768555,
        -2.4055864810943604
      ],
      "type": "VEC3"
    },
    {
      "bufferView": 2,
      "byteOffset": 3825480,
      "componentType": 5126,
      "count": 68,
      "max": [
        1.0,
        1.0,
        1.0
      ],
      "min": [
        -1.0,
        -1.0,
        -1.0
      ],
      "type": "VEC3"
    },
    {
      "bufferView": 1,
      "byteOffset": 1274888,
      "componentType": 5126,
      "count": 68,
      "max": [
        0.9972624778747559,
        0.9655441045761108
      ],
      "min": [
        0.002737026661634445,
        0.0027315914630889893
      ],
      "type": "VEC2"
    },
    {
      "bufferView": 0,
      "byteOffset": 1192104,
      "componentType": 5125,
      "count": 84,
      "type": "SCALAR"
    },
    {
      "bufferView": 2,
      "byteOffset": 3826296,
      "componentType": 5126,
      "count": 138,
      "max": [
        1.7438894510269165,
        1.8469853401184082,
        0.055226899683475494
      ],
      "min": [
        -1.7153220176696777,
        -1.7153220176696777,
        -0.005875541362911463
      ],
      "type": "VEC3"
    },
    {
      "bufferView": 2,
      "byteOffset": 3827952,
      "componentType": 5126,
      "count": 138,
      "max": [
        0.9682180881500244,
        0.9999929666519165,
        1.0
      ],
      "min": [
        -0.19962356984615326,
        -0.05801703408360481,
        -0.24400010704994202
      ],
      "type": "VEC3"
    },
    {
      "bufferView": 3,
      "componentType": 5126,
      "count": 138,
      "max": [
        0.993916928768158,
        1.0,
        0.9695321917533875,
        1.0
      ],
      "min": [
        -0.9949519038200378,
        -0.05506423860788345,
        -0.9999708533287048,
        -1.0
      ],
      "type": "VEC4"
    },
    {
      "bufferView": 1,
      "byteOffset": 1275432,
      "componentType": 5126,
      "count": 138,
      "max": [
        1.0,
        0.9923497438430786
      ],
      "min": [
        0.0,
        0.0
      ],
      "type": "VEC2"
    },
    {
      "bufferView": 0,
      "byteOffset": 1192440,
      "componentType": 5125,
      "count": 624,
      "type": "SCALAR"
    }
  ],
  "asset": {
    "extras": {
      "author": "Shahriar Shahrabi (https://sketchfab.com/shahriyarshahrabi)",
      "license": "CC-BY-4.0 (http://creativecommons.org/licenses/by/4.0/)",
      "source": "https://sketchfab.com/3d-models/night-in-a-persian-garden-d91b59838a6e47ab82a3c1531892f362",
      "title": "Night in a Persian Garden"
    },
    "generator": "Sketchfab-12.68.0",
    "version": "2.0"
  },
  "bufferViews": [
    {
      "buffer": 0,
      "byteLength": 1194936,
      "name": "floatBufferViews",
      "target": 34963
    },
    {
      "buffer": 0,
      "byteLength": 1276536,
      "byteOffset": 1194936,
      "byteStride": 8,
      "name": "floatBufferViews",
      "target": 34962
    },
    {
      "buffer": 0,
      "byteLength": 3829608,
      "byteOffset": 2471472,
      "byteStride": 12,
      "name": "floatBufferViews",
      "target": 34962
    },
    {
      "buffer": 0,
      "byteLength": 2208,
      "byteOffset": 6301080,
      "byteStride": 16,
      "name": "floatBufferViews",
      "target": 34962
    }
  ],
  "buffers": [
    {
      "byteLength": 6303288,
      "uri": "scene.bin"
    }
  ],
  "extensionsRequired": [
    "KHR_materials_pbrSpecularGlossiness"
  ],
  "extensionsUsed": [
    "KHR_materials_pbrSpecularGlossiness"
  ],
  "images": [
    {
      "uri": "textures/material0.001_emissive.jpeg"
    },
    {
      "uri": "textures/material0.002_emissive.jpeg"
    },
    {
      "uri": "textures/Material.005_diffuse.png"
    },
    {
      "uri": "textures/Material.005_emissive.jpeg"
    },
    {
      "uri": "textures/Material.006_emissive.jpeg"
    },
    {
      "uri": "textures/Material.007_normal.png"
    }
  ],
  "materials": [
    {
      "doubleSided": true,
      "emissiveFactor": [
        1.0,
        1.0,
        1.0
      ],
      "emissiveTexture": {
        "index": 0
      },
      "extensions": {
        "KHR_materials_pbrSpecularGlossiness": {
          "diffuseFactor": [
            0.0,
            0.0,
            0.0,
            1.0
          ],
          "glossinessFactor": 0.0,
          "specularFactor": [
            0.0,
            0.0,
            0.0
          ]
        }
      },
      "name": "material0.001"
    },
    {
      "doubleSided": true,
      "emissiveFactor": [
        1.0,
        1.0,
        1.0
      ],
      "emissiveTexture": {
        "index": 1
      },
      "extensions": {
        "KHR_materials_pbrSpecularGlossiness": {
          "diffuseFactor": [
            0.0,
            0.0,
            0.0,
            1.0
          ],
          "glossinessFactor": 0.0,
          "specularFactor": [
            0.0,
            0.0,
            0.0
          ]
        }
      },
      "name": "material0.002"
    },
    {
      "alphaCutoff": 0.20859744025963703,
      "alphaMode": "MASK",
      "doubleSided": true,
      "emissiveFactor": [
        1.0,
        1.0,
        1.0
      ],
      "emissiveTexture": {
        "index": 3
      },
      "extensions": {
        "KHR_materials_pbrSpecularGlossiness": {
          "diffuseFactor": [
            0.0,
            0.0,
            0.0,
            1.0
          ],
          "diffuseTexture": {
            "index": 2
          },
          "glossinessFactor": 0.0,
          "specularFactor": [
            0.0,
            0.0,
            0.0
          ]
        }
      },
      "name": "Material.005"
    },
    {
      "emissiveFactor": [
        1.0,
        1.0,
        1.0
      ],
      "emissiveTexture": {
        "index": 4
      },
      "extensions": {
        "KHR_materials_pbrSpecularGlossiness": {
          "diffuseFactor": [
            0.0,
            0.0,
            0.0,
            1.0
          ],
          "glossinessFactor": 0.19595917942265426,
          "specularFactor": [
            0.0,
            0.0,
            0.0
          ]
        }
      },
      "name": "Material.006"
    },
    {
      "alphaMode": "BLEND",
      "extensions": {
        "KHR_materials_pbrSpecularGlossiness": {
          "diffuseFactor": [
            0.0,
            0.0,
            0.0,
            0.0
          ],
          "glossinessFactor": 1.0,
          "specularFactor": [
            0.13563979825062678,
            0.13563979825062678,
            0.13563979825062678
          ]
        }
      },
      "name": "Material.007",
      "normalTexture": {
        "index": 5
      }
    }
  ],
  "meshes": [
    {
      "name": "object0.001_material0.001_0",
      "primitives": [
        {
          "attributes": {
            "NORMAL": 1,
            "POSITION": 0,
            "TEXCOORD_0": 2
          },
          "indices": 3,
          "material": 0,
          "mode": 4
        }
      ]
    },
    {
      "name": "object0.001_material0.001_0",
      "primitives": [
        {
          "attributes": {
            "NORMAL": 5,
            "POSITION": 4,
            "TEXCOORD_0": 6
          },
          "indices": 7,
          "material": 0,
          "mode": 4
        }
      ]
    },
    {
      "name": "object0.002_material0.002_0",
      "primitives": [
        {
          "attributes": {
            "NORMAL": 9,
            "POSITION": 8,
            "TEXCOORD_0": 10
          },
          "indices": 11,
          "material": 1,
          "mode": 4
        }
      ]
    },
    {
      "name": "polySurface1.003_Material.005_0",
      "primitives": [
        {
          "attributes": {
            "NORMAL": 13,
            "POSITION": 12,
            "TEXCOORD_0": 14
          },
          "indices": 15,
          "material": 2,
          "mode": 4
        }
      ]
    },
    {
      "name": "Walls.001_Material.006_0",
      "primitives": [
        {
          "attributes": {
            "NORMAL": 17,
            "POSITION": 16,
            "TEXCOORD_0": 18
          },
          "indices": 19,
          "material": 3,
          "mode": 4
        }
      ]
    },
    {
      "name": "Plane.003_Material.007_0",
      "primitives": [
        {
          "attributes": {
            "NORMAL": 21,
            "POSITION": 20,
            "TANGENT": 22,
            "TEXCOORD_0": 23
          },
          "indices": 24,
          "material": 4,
          "mode": 4
        }
      ]
    }
  ],
  "nodes": [
    {
      "children": [
        1
      ],
      "matrix": [
        1.0,
        0.0,
        0.0,
        0.0,
        0.0,
        2.220446049250313e-16,
        -1.0,
        0.0,
        0.0,
        1.0,
        2.220446049250313e-16,
        0.0,
        0.0,
        0.0,
        0.0,
        1.0
      ],
      "name": "Sketchfab_model"
    },
    {
      "children": [
        2
      ],
      "matrix": [
        1.0,
        0.0,
        0.0,
        0.0,
        0.0,
        0.0,
        1.0,
        0.0,
        0.0,
        -1.0,
        0.0,
        0.0,
        0.0,
        0.0,
        0.0,
        1.0
      ],
      "name": "ff38b01901494aac8933613d844bf41f.fbx"
    },
    {
      "children": [
        3,
        6,
        8,
        10,
        12
      ],
      "name": "RootNode"
    },
    {
      "children": [
        4,
        5
      ],
      "matrix": [
        100.0,
        0.0,
        0.0,
        0.0,
        0.0,
        99.99999999999866,
        1.6292067073209114e-05,
        0.0,
        0.0,
        -1.6292067073209114e-05,
        99.99999999999866,
        0.0,
        0.0,
        0.0,
        0.0,
        1.0
      ],
      "name": "object0.001"
    },
    {
      "mesh": 0,
      "name": "object0.001_material0.001_0"
    },
    {
      "mesh": 1,
      "name": "object0.001_material0.001_0"
    },
    {
      "children": [
        7
      ],
      "matrix": [
        100.0,
        0.0,
        0.0,
        0.0,
        0.0,
        99.99999999999866,
        1.6292067073209114e-05,
        0.0,
        0.0,
        -1.6292067073209114e-05,
        99.99999999999866,
        0.0,
        0.0,
        0.0,
        0.0,
        1.0
      ],
      "name": "object0.002"
    },
    {
      "mesh": 2,
      "name": "object0.002_material0.002_0"
    },
    {
      "children": [
        9
      ],
      "matrix": [
        100.0,
        0.0,
        0.0,
        0.0,
        0.0,
        -1.629206793918314e-05,
        -99.99999999999868,
        0.0,
        0.0,
        99.99999999999868,
        -1.629206793918314e-05,
        0.0,
        0.0,
        0.0,
        0.0,
        1.0
      ],
      "name": "polySurface1.003"
    },
    {
      "mesh": 3,
      "name": "polySurface1.003_Material.005_0"
    },
    {
      "children": [
        11
      ],
      "matrix": [
        100.0,
        0.0,
        0.0,
        0.0,
        0.0,
        -1.629206793918314e-05,
        -99.99999999999868,
        0.0,
        0.0,
        99.99999999999868,
        -1.629206793918314e-05,
        0.0,
        0.0,
        0.0,
        0.0,
        1.0
      ],
      "name": "Walls.001"
    },
    {
      "mesh": 4,
      "name": "Walls.001_Material.006_0"
    },
    {
      "children": [
        13
      ],
      "matrix": [
        100.0,
        0.0,
        0.0,
        0.0,
        -0.0,
        -1.629206793918314e-05,
        -99.99999999999868,
        0.0,
        0.0,
        99.99999999999868,
        -1.629206793918314e-05,
        0.0,
        -5.665349960327148,
        15.501748085021973,
        11.729907989501953,
        1.0
      ],
      "name": "Plane.003"
    },
    {
      "mesh": 5,
      "name": "Plane.003_Material.007_0"
    }
  ],
  "samplers": [
    {
      "magFilter": 9729,
      "minFilter": 9987,
      "wrapS": 10497,
      "wrapT": 10497
    }
  ],
  "scene": 0,
  "scenes": [
    {
      "name": "Sketchfab_Scene",
      "nodes": [
        0
      ]
    }
  ],
  "textures": [
    {
      "sampler": 0,
      "source": 0
    },
    {
      "sampler": 0,
      "source": 1
    },
    {
      "sampler": 0,
      "source": 2
    },
    {
      "sampler": 0,
      "source": 3
    },
    {
      "sampler": 0,
      "source": 4
    },
    {
      "sampler": 0,
      "source": 5
    }
  ]
}
